<svg width="860" height="83" viewBox="0 0 860 83" fill="none" xmlns="http://www.w3.org/2000/svg">
<path d="M36.95 68V25.5H48.85C51.5574 25.5 53.6981 26.0352 55.2722 27.1056C56.8778 28.1759 58.0269 29.4824 58.7194 31.025C59.412 32.5361 59.7583 33.9685 59.7583 35.3222C59.7583 36.8648 59.3963 38.2815 58.6722 39.5722C57.9796 40.8315 57.0352 41.8704 55.8389 42.6889C58.137 43.7278 59.9944 45.2861 61.4111 47.3639C62.8593 49.4417 63.5833 51.8028 63.5833 54.4472C63.5833 56.6824 63.0167 58.8389 61.8833 60.9167C60.7815 62.9944 59.1287 64.6944 56.925 66.0167C54.7528 67.3389 52.0611 68 48.85 68H36.95ZM42.3333 63.1833H48.4722C50.8019 63.1833 52.675 62.7269 54.0917 61.8139C55.5083 60.9009 56.5472 59.7519 57.2083 58.3667C57.8694 56.9815 58.2 55.612 58.2 54.2583C58.2 52.9361 57.8852 51.5824 57.2556 50.1972C56.6259 48.812 55.6028 47.663 54.1861 46.75C52.7694 45.8056 50.8648 45.3333 48.4722 45.3333H42.3333V63.1833ZM42.3333 40.8H48.425C50.2824 40.8 51.7778 40.3593 52.9111 39.4778C54.0759 38.5648 54.6583 37.2741 54.6583 35.6056C54.6583 33.8741 54.0917 32.5676 52.9583 31.6861C51.825 30.7731 50.3769 30.3167 48.6139 30.3167H42.3333V40.8ZM65.8057 30.3167V25.5H93.8557V30.3167H82.5224V68H77.1391V30.3167H65.8057ZM102.095 68V25.5H113.995C116.702 25.5 118.843 26.0352 120.417 27.1056C122.022 28.1759 123.171 29.4824 123.864 31.025C124.557 32.5361 124.903 33.9685 124.903 35.3222C124.903 36.8648 124.541 38.2815 123.817 39.5722C123.124 40.8315 122.18 41.8704 120.983 42.6889C123.282 43.7278 125.139 45.2861 126.556 47.3639C128.004 49.4417 128.728 51.8028 128.728 54.4472C128.728 56.6824 128.161 58.8389 127.028 60.9167C125.926 62.9944 124.273 64.6944 122.07 66.0167C119.897 67.3389 117.206 68 113.995 68H102.095ZM107.478 63.1833H113.617C115.946 63.1833 117.82 62.7269 119.236 61.8139C120.653 60.9009 121.692 59.7519 122.353 58.3667C123.014 56.9815 123.345 55.612 123.345 54.2583C123.345 52.9361 123.03 51.5824 122.4 50.1972C121.77 48.812 120.747 47.663 119.331 46.75C117.914 45.8056 116.009 45.3333 113.617 45.3333H107.478V63.1833ZM107.478 40.8H113.57C115.427 40.8 116.922 40.3593 118.056 39.4778C119.22 38.5648 119.803 37.2741 119.803 35.6056C119.803 33.8741 119.236 32.5676 118.103 31.6861C116.97 30.7731 115.521 30.3167 113.758 30.3167H107.478V40.8ZM154.75 76.5V22.6667H159.284V76.5H154.75ZM188.989 68V25.5H194.373V68H188.989ZM203.134 30.3167V25.5H231.184V30.3167H219.851V68H214.467V30.3167H203.134ZM254.25 68.85C251.197 68.85 248.316 68.2833 245.609 67.15C242.933 65.9852 240.572 64.3954 238.525 62.3806C236.511 60.3657 234.921 58.0204 233.756 55.3444C232.623 52.6685 232.056 49.8037 232.056 46.75C232.056 43.6963 232.623 40.8315 233.756 38.1556C234.921 35.4796 236.511 33.1343 238.525 31.1194C240.572 29.1046 242.933 27.5306 245.609 26.3972C248.316 25.2324 251.197 24.65 254.25 24.65C257.336 24.65 260.216 25.2324 262.892 26.3972C265.568 27.5306 267.913 29.1046 269.928 31.1194C271.975 33.1343 273.564 35.4796 274.698 38.1556C275.862 40.8315 276.445 43.6963 276.445 46.75C276.445 49.8037 275.862 52.6685 274.698 55.3444C273.564 58.0204 271.975 60.3657 269.928 62.3806C267.913 64.3954 265.568 65.9852 262.892 67.15C260.216 68.2833 257.336 68.85 254.25 68.85ZM254.25 63.75C257.367 63.75 260.185 62.9944 262.703 61.4833C265.222 59.9407 267.205 57.8787 268.653 55.2972C270.133 52.7157 270.873 49.8667 270.873 46.75C270.873 43.6019 270.133 40.7528 268.653 38.2028C267.205 35.6213 265.222 33.575 262.703 32.0639C260.185 30.5213 257.367 29.75 254.25 29.75C251.134 29.75 248.316 30.5213 245.798 32.0639C243.311 33.575 241.327 35.6213 239.848 38.2028C238.368 40.7528 237.628 43.6019 237.628 46.75C237.628 49.8667 238.368 52.7157 239.848 55.2972C241.327 57.8787 243.311 59.9407 245.798 61.4833C248.316 62.9944 251.134 63.75 254.25 63.75ZM285.243 68V25.5H295.774C298.575 25.5 300.936 25.925 302.857 26.775C304.809 27.625 306.383 28.7426 307.579 30.1278C308.775 31.4815 309.641 32.9611 310.176 34.5667C310.743 36.1722 311.026 37.7463 311.026 39.2889C311.026 40.8 310.759 42.3583 310.224 43.9639C309.688 45.5694 308.823 47.0648 307.626 48.45C306.43 49.8352 304.856 50.9528 302.904 51.8028C300.952 52.6528 298.575 53.0778 295.774 53.0778H290.626V68H285.243ZM290.626 48.2611H295.49C298.04 48.2611 300.055 47.8204 301.535 46.9389C303.014 46.0259 304.069 44.8926 304.699 43.5389C305.328 42.1537 305.643 40.737 305.643 39.2889C305.643 37.9037 305.328 36.5185 304.699 35.1333C304.1 33.7481 303.061 32.5991 301.582 31.6861C300.134 30.7731 298.103 30.3167 295.49 30.3167H290.626V48.2611ZM319.385 68V25.5H330.057C332.733 25.5 335.031 26.0352 336.951 27.1056C338.872 28.1759 340.351 29.5926 341.39 31.3556C342.461 33.087 342.996 34.9917 342.996 37.0694C342.996 39.3991 342.335 41.4926 341.012 43.35C339.69 45.2074 337.88 46.5769 335.582 47.4583L349.843 68H343.562L330.057 48.45H324.768V68H319.385ZM324.768 43.9167H330.057C331.883 43.9167 333.362 43.5861 334.496 42.925C335.661 42.2324 336.511 41.3667 337.046 40.3278C337.612 39.2574 337.896 38.1713 337.896 37.0694C337.896 35.0861 337.172 33.4648 335.724 32.2056C334.307 30.9463 332.418 30.3167 330.057 30.3167H324.768V43.9167ZM350.432 75.0833C351.848 73.3204 352.982 71.2741 353.832 68.9444C354.713 66.6148 355.154 63.9389 355.154 60.9167H360.254C360.254 63.5926 359.876 66.1111 359.121 68.4722C358.397 70.8648 357.389 73.0685 356.098 75.0833H350.432ZM392.154 68.5667C389.636 68.5667 387.353 68.063 385.307 67.0556C383.292 66.0481 381.686 64.8204 380.49 63.3722L382.049 56.8556C382.93 58.6185 384.252 60.2083 386.015 61.625C387.778 63.0417 389.887 63.75 392.343 63.75C394.578 63.75 396.42 63.0417 397.868 61.625C399.348 60.2083 400.087 58.4611 400.087 56.3833C400.087 54.8722 399.725 53.6287 399.001 52.6528C398.277 51.6769 397.459 50.9056 396.546 50.3389C395.633 49.7722 394.909 49.363 394.374 49.1111L389.179 46.4667C388.361 46.0259 387.337 45.412 386.11 44.625C384.913 43.838 383.859 42.7519 382.946 41.3667C382.033 39.9815 381.576 38.187 381.576 35.9833C381.576 33.8426 382.064 31.938 383.04 30.2694C384.048 28.6009 385.433 27.2944 387.196 26.35C388.99 25.4056 391.036 24.9333 393.335 24.9333C395.601 24.9333 397.6 25.3426 399.332 26.1611C401.063 26.9481 402.417 27.7667 403.393 28.6167L401.835 35.1333C401.048 33.8111 399.883 32.5676 398.34 31.4028C396.798 30.238 395.05 29.6556 393.099 29.6556C391.21 29.6556 389.699 30.2222 388.565 31.3556C387.432 32.4574 386.865 33.8269 386.865 35.4639C386.865 36.7231 387.149 37.762 387.715 38.5806C388.313 39.3991 388.974 40.0444 389.699 40.5167C390.454 40.9889 391.068 41.3509 391.54 41.6028L396.829 44.2472C397.459 44.562 398.246 45.0028 399.19 45.5694C400.166 46.1361 401.126 46.8917 402.071 47.8361C403.015 48.7491 403.802 49.8824 404.432 51.2361C405.061 52.5583 405.376 54.1639 405.376 56.0528C405.376 58.4769 404.794 60.6333 403.629 62.5222C402.496 64.4111 400.937 65.8907 398.954 66.9611C396.971 68.0315 394.704 68.5667 392.154 68.5667ZM423.535 68.5667C421.551 68.5667 419.694 68.0787 417.962 67.1028C416.231 66.0954 414.83 64.6472 413.76 62.7583C412.689 60.8694 412.154 58.6028 412.154 55.9583V39.6667H417.254V55.25C417.254 57.4852 417.915 59.4685 419.238 61.2C420.591 62.9 422.48 63.75 424.904 63.75C426.888 63.75 428.65 63.0417 430.193 61.625C431.767 60.1769 432.554 58.0991 432.554 55.3917V39.6667H437.654V68H432.932V63.4194C431.893 65.088 430.539 66.363 428.871 67.2444C427.234 68.1259 425.455 68.5667 423.535 68.5667ZM446.721 82.1667V39.6667H451.443V43.3972C452.734 42.1065 454.229 41.0991 455.929 40.375C457.629 39.6509 459.455 39.2889 461.407 39.2889C464.02 39.2889 466.381 39.95 468.49 41.2722C470.631 42.563 472.331 44.3102 473.59 46.5139C474.881 48.7176 475.526 51.1574 475.526 53.8333C475.526 56.5093 474.881 58.9491 473.59 61.1528C472.331 63.3565 470.631 65.1194 468.49 66.4417C466.381 67.7324 464.02 68.3778 461.407 68.3778C459.55 68.3778 457.802 68.0472 456.165 67.3861C454.528 66.725 453.08 65.812 451.821 64.6472V82.1667H446.721ZM460.746 63.75C462.54 63.75 464.162 63.3093 465.61 62.4278C467.089 61.5148 468.254 60.3185 469.104 58.8389C469.986 57.3278 470.426 55.6593 470.426 53.8333C470.426 52.0074 469.986 50.3546 469.104 48.875C468.254 47.3639 467.089 46.1676 465.61 45.2861C464.162 44.3731 462.54 43.9167 460.746 43.9167C458.951 43.9167 457.314 44.3731 455.835 45.2861C454.387 46.1676 453.222 47.3639 452.34 48.875C451.49 50.3546 451.065 52.0074 451.065 53.8333C451.065 55.6593 451.49 57.3278 452.34 58.8389C453.222 60.3185 454.387 61.5148 455.835 62.4278C457.314 63.3093 458.951 63.75 460.746 63.75ZM482.58 82.1667V39.6667H487.302V43.3972C488.593 42.1065 490.089 41.0991 491.789 40.375C493.489 39.6509 495.314 39.2889 497.266 39.2889C499.879 39.2889 502.24 39.95 504.35 41.2722C506.49 42.563 508.19 44.3102 509.45 46.5139C510.74 48.7176 511.386 51.1574 511.386 53.8333C511.386 56.5093 510.74 58.9491 509.45 61.1528C508.19 63.3565 506.49 65.1194 504.35 66.4417C502.24 67.7324 499.879 68.3778 497.266 68.3778C495.409 68.3778 493.662 68.0472 492.025 67.3861C490.388 66.725 488.939 65.812 487.68 64.6472V82.1667H482.58ZM496.605 63.75C498.4 63.75 500.021 63.3093 501.469 62.4278C502.949 61.5148 504.114 60.3185 504.964 58.8389C505.845 57.3278 506.286 55.6593 506.286 53.8333C506.286 52.0074 505.845 50.3546 504.964 48.875C504.114 47.3639 502.949 46.1676 501.469 45.2861C500.021 44.3731 498.4 43.9167 496.605 43.9167C494.811 43.9167 493.174 44.3731 491.694 45.2861C490.246 46.1676 489.081 47.3639 488.2 48.875C487.35 50.3546 486.925 52.0074 486.925 53.8333C486.925 55.6593 487.35 57.3278 488.2 58.8389C489.081 60.3185 490.246 61.5148 491.694 62.4278C493.174 63.3093 494.811 63.75 496.605 63.75ZM531.378 68.5667C528.64 68.5667 526.137 67.9056 523.87 66.5833C521.603 65.2611 519.793 63.4824 518.44 61.2472C517.117 59.012 516.456 56.5407 516.456 53.8333C516.456 51.0944 517.117 48.6231 518.44 46.4194C519.793 44.1843 521.603 42.4056 523.87 41.0833C526.137 39.7611 528.64 39.1 531.378 39.1C534.149 39.1 536.652 39.7611 538.887 41.0833C541.153 42.4056 542.948 44.1843 544.27 46.4194C545.624 48.6231 546.301 51.0944 546.301 53.8333C546.301 56.5407 545.624 59.012 544.27 61.2472C542.948 63.4824 541.153 65.2611 538.887 66.5833C536.652 67.9056 534.149 68.5667 531.378 68.5667ZM531.378 63.75C533.204 63.75 534.857 63.3093 536.337 62.4278C537.816 61.5148 538.997 60.3185 539.878 58.8389C540.76 57.3278 541.201 55.6593 541.201 53.8333C541.201 52.0074 540.76 50.3546 539.878 48.875C538.997 47.3639 537.816 46.1676 536.337 45.2861C534.857 44.3731 533.204 43.9167 531.378 43.9167C529.553 43.9167 527.9 44.3731 526.42 45.2861C524.941 46.1676 523.76 47.3639 522.878 48.875C521.997 50.3546 521.556 52.0074 521.556 53.8333C521.556 55.6593 521.997 57.3278 522.878 58.8389C523.76 60.3185 524.941 61.5148 526.42 62.4278C527.9 63.3093 529.553 63.75 531.378 63.75ZM553.369 68V39.6667H558.091V44.8611C559.099 43.1926 560.437 41.8704 562.105 40.8944C563.774 39.887 565.757 39.3833 568.055 39.3833L569.33 44.4833C568.732 44.2944 568.04 44.2 567.253 44.2C564.608 44.2 562.483 45.05 560.878 46.75C559.272 48.4185 558.469 50.8111 558.469 53.9278V68H553.369ZM577.925 68V43.9167H571.503V39.6667H578.066V30.2222H582.883V39.6667H589.919V43.9167H583.025V68H577.925Z" fill="#1D1D1D"/>
<path d="M11 58C9.47833 58 8.04833 57.6979 6.71 57.0938C5.37167 56.4897 4.2075 55.6705 3.2175 54.6362C2.2275 53.602 1.44393 52.3849 0.866801 50.985C0.289668 49.5851 0.000734725 48.0901 1.3924e-06 46.5C-0.00073194 44.9099 0.288201 43.4149 0.866801 42.015C1.4454 40.6151 2.22897 39.398 3.2175 38.3637C4.20603 37.3295 5.3702 36.5103 6.71 35.9062C8.0498 35.3021 9.4798 35 11 35C12.5202 35 13.9502 35.3021 15.29 35.9062C16.6298 36.5103 17.794 37.3295 18.7825 38.3637C19.771 39.398 20.555 40.6151 21.1343 42.015C21.7136 43.4149 22.0022 44.9099 22 46.5C21.9978 48.0901 21.7089 49.5851 21.1332 50.985C20.5575 52.3849 19.774 53.602 18.7825 54.6362C17.791 55.6705 16.6269 56.49 15.29 57.0949C13.9531 57.6998 12.5231 58.0015 11 58Z" fill="#582C5F"/>
</svg>
