<svg width="572" height="115" viewBox="0 0 572 115" fill="none" xmlns="http://www.w3.org/2000/svg">
<path d="M103.111 68.5667C100.593 68.5667 98.3102 68.063 96.2639 67.0556C94.2491 66.0481 92.6435 64.8204 91.4472 63.3722L93.0056 56.8556C93.887 58.6185 95.2093 60.2083 96.9722 61.625C98.7352 63.0417 100.844 63.75 103.3 63.75C105.535 63.75 107.377 63.0417 108.825 61.625C110.305 60.2083 111.044 58.4611 111.044 56.3833C111.044 54.8722 110.682 53.6287 109.958 52.6528C109.234 51.6769 108.416 50.9056 107.503 50.3389C106.59 49.7722 105.866 49.363 105.331 49.1111L100.136 46.4667C99.3176 46.0259 98.2944 45.412 97.0667 44.625C95.8704 43.838 94.8157 42.7519 93.9028 41.3667C92.9898 39.9815 92.5333 38.187 92.5333 35.9833C92.5333 33.8426 93.0213 31.938 93.9972 30.2694C95.0046 28.6009 96.3898 27.2944 98.1528 26.35C99.9472 25.4056 101.994 24.9333 104.292 24.9333C106.558 24.9333 108.557 25.3426 110.289 26.1611C112.02 26.9481 113.374 27.7667 114.35 28.6167L112.792 35.1333C112.005 33.8111 110.84 32.5676 109.297 31.4028C107.755 30.238 106.007 29.6556 104.056 29.6556C102.167 29.6556 100.656 30.2222 99.5222 31.3556C98.3889 32.4574 97.8222 33.8269 97.8222 35.4639C97.8222 36.7231 98.1056 37.762 98.6722 38.5806C99.2704 39.3991 99.9315 40.0444 100.656 40.5167C101.411 40.9889 102.025 41.3509 102.497 41.6028L107.786 44.2472C108.416 44.562 109.203 45.0028 110.147 45.5694C111.123 46.1361 112.083 46.8917 113.028 47.8361C113.972 48.7491 114.759 49.8824 115.389 51.2361C116.019 52.5583 116.333 54.1639 116.333 56.0528C116.333 58.4769 115.751 60.6333 114.586 62.5222C113.453 64.4111 111.894 65.8907 109.911 66.9611C107.928 68.0315 105.661 68.5667 103.111 68.5667ZM137.183 68.5667C134.224 68.5667 131.564 67.9056 129.203 66.5833C126.873 65.2611 125.032 63.4667 123.678 61.2C122.356 58.9019 121.695 56.3519 121.695 53.55C121.695 50.8741 122.34 48.45 123.631 46.2778C124.921 44.0741 126.653 42.3269 128.825 41.0361C131.029 39.7454 133.453 39.1 136.097 39.1C138.71 39.1 141.103 39.7296 143.275 40.9889C145.447 42.2167 147.179 43.8852 148.47 45.9944C149.76 48.1037 150.406 50.4963 150.406 53.1722V55.25H131.895C131.076 55.25 130.242 55.2185 129.392 55.1556C128.542 55.0926 127.707 54.9981 126.889 54.8722C127.235 57.3907 128.369 59.5 130.289 61.2C132.241 62.9 134.555 63.75 137.231 63.75C139.025 63.75 140.694 63.3407 142.236 62.5222C143.779 61.7037 145.022 60.6176 145.967 59.2639L147.383 65.0722C146.03 66.1741 144.471 67.0398 142.708 67.6694C140.977 68.2676 139.135 68.5667 137.183 68.5667ZM126.747 51.425C128.447 51.1417 130.163 51 131.895 51H141.292C141.984 51 142.661 51.0315 143.322 51.0944C144.015 51.1259 144.707 51.1731 145.4 51.2361C144.959 49.0324 143.857 47.2222 142.095 45.8056C140.332 44.3574 138.332 43.6333 136.097 43.6333C133.799 43.6333 131.784 44.4046 130.053 45.9472C128.321 47.4583 127.22 49.2843 126.747 51.425ZM157.213 68V39.6667H161.935V44.2472C162.974 42.5787 164.312 41.3037 165.949 40.4222C167.618 39.5407 169.412 39.1 171.332 39.1C173.347 39.1 175.205 39.6037 176.905 40.6111C178.636 41.587 180.037 43.0194 181.107 44.9083C182.178 46.7657 182.713 49.0324 182.713 51.7083V68H177.613V52.4167C177.613 50.1815 176.936 48.2139 175.582 46.5139C174.26 44.7824 172.387 43.9167 169.963 43.9167C167.98 43.9167 166.201 44.6407 164.627 46.0889C163.084 47.5056 162.313 49.5676 162.313 52.275V68H157.213ZM202.688 82.7333C200.516 82.7333 198.532 82.4185 196.738 81.7889C194.975 81.1593 193.401 80.2935 192.016 79.1917L193.432 73.4306C194.377 74.7843 195.636 75.8861 197.21 76.7361C198.784 77.5861 200.595 78.0111 202.641 78.0111C205.82 78.0111 208.386 77.0509 210.338 75.1306C212.321 73.2102 213.313 70.7389 213.313 67.7167V64.2694C212.054 65.5287 210.558 66.5361 208.827 67.2917C207.127 68.0157 205.301 68.3778 203.349 68.3778C200.768 68.3778 198.407 67.7324 196.266 66.4417C194.125 65.1194 192.409 63.3565 191.119 61.1528C189.859 58.9491 189.23 56.5093 189.23 53.8333C189.23 51.1574 189.859 48.7176 191.119 46.5139C192.409 44.3102 194.125 42.563 196.266 41.2722C198.407 39.95 200.768 39.2889 203.349 39.2889C205.301 39.2889 207.127 39.6509 208.827 40.375C210.558 41.0991 212.054 42.1065 213.313 43.3972V39.6667H218.035V68C218.035 71.0852 217.311 73.7296 215.863 75.9333C214.446 78.137 212.573 79.8213 210.244 80.9861C207.914 82.1509 205.395 82.7333 202.688 82.7333ZM204.01 63.75C205.805 63.75 207.426 63.3093 208.874 62.4278C210.354 61.5148 211.519 60.3185 212.369 58.8389C213.25 57.3278 213.691 55.6593 213.691 53.8333C213.691 52.0074 213.25 50.3546 212.369 48.875C211.519 47.3639 210.354 46.1676 208.874 45.2861C207.426 44.3731 205.805 43.9167 204.01 43.9167C202.216 43.9167 200.579 44.3731 199.099 45.2861C197.651 46.1676 196.486 47.3639 195.605 48.875C194.755 50.3546 194.33 52.0074 194.33 53.8333C194.33 55.6593 194.755 57.3278 195.605 58.8389C196.486 60.3185 197.651 61.5148 199.099 62.4278C200.579 63.3093 202.216 63.75 204.01 63.75ZM251.795 68.5667C249.276 68.5667 246.994 68.063 244.947 67.0556C242.933 66.0481 241.327 64.8204 240.131 63.3722L241.689 56.8556C242.571 58.6185 243.893 60.2083 245.656 61.625C247.419 63.0417 249.528 63.75 251.984 63.75C254.219 63.75 256.06 63.0417 257.509 61.625C258.988 60.2083 259.728 58.4611 259.728 56.3833C259.728 54.8722 259.366 53.6287 258.642 52.6528C257.918 51.6769 257.099 50.9056 256.186 50.3389C255.273 49.7722 254.549 49.363 254.014 49.1111L248.82 46.4667C248.001 46.0259 246.978 45.412 245.75 44.625C244.554 43.838 243.499 42.7519 242.586 41.3667C241.673 39.9815 241.217 38.187 241.217 35.9833C241.217 33.8426 241.705 31.938 242.681 30.2694C243.688 28.6009 245.073 27.2944 246.836 26.35C248.631 25.4056 250.677 24.9333 252.975 24.9333C255.242 24.9333 257.241 25.3426 258.972 26.1611C260.704 26.9481 262.058 27.7667 263.034 28.6167L261.475 35.1333C260.688 33.8111 259.523 32.5676 257.981 31.4028C256.438 30.238 254.691 29.6556 252.739 29.6556C250.85 29.6556 249.339 30.2222 248.206 31.3556C247.072 32.4574 246.506 33.8269 246.506 35.4639C246.506 36.7231 246.789 37.762 247.356 38.5806C247.954 39.3991 248.615 40.0444 249.339 40.5167C250.095 40.9889 250.709 41.3509 251.181 41.6028L256.47 44.2472C257.099 44.562 257.886 45.0028 258.831 45.5694C259.807 46.1361 260.767 46.8917 261.711 47.8361C262.656 48.7491 263.443 49.8824 264.072 51.2361C264.702 52.5583 265.017 54.1639 265.017 56.0528C265.017 58.4769 264.435 60.6333 263.27 62.5222C262.136 64.4111 260.578 65.8907 258.595 66.9611C256.611 68.0315 254.345 68.5667 251.795 68.5667ZM285.3 68.5667C282.561 68.5667 280.059 67.9056 277.792 66.5833C275.525 65.2611 273.715 63.4824 272.361 61.2472C271.039 59.012 270.378 56.5407 270.378 53.8333C270.378 51.0944 271.039 48.6231 272.361 46.4194C273.715 44.1843 275.525 42.4056 277.792 41.0833C280.059 39.7611 282.561 39.1 285.3 39.1C288.071 39.1 290.573 39.7611 292.809 41.0833C295.075 42.4056 296.87 44.1843 298.192 46.4194C299.546 48.6231 300.223 51.0944 300.223 53.8333C300.223 56.5407 299.546 59.012 298.192 61.2472C296.87 63.4824 295.075 65.2611 292.809 66.5833C290.573 67.9056 288.071 68.5667 285.3 68.5667ZM285.3 63.75C287.126 63.75 288.779 63.3093 290.259 62.4278C291.738 61.5148 292.919 60.3185 293.8 58.8389C294.682 57.3278 295.123 55.6593 295.123 53.8333C295.123 52.0074 294.682 50.3546 293.8 48.875C292.919 47.3639 291.738 46.1676 290.259 45.2861C288.779 44.3731 287.126 43.9167 285.3 43.9167C283.474 43.9167 281.822 44.3731 280.342 45.2861C278.862 46.1676 277.682 47.3639 276.8 48.875C275.919 50.3546 275.478 52.0074 275.478 53.8333C275.478 55.6593 275.919 57.3278 276.8 58.8389C277.682 60.3185 278.862 61.5148 280.342 62.4278C281.822 63.3093 283.474 63.75 285.3 63.75ZM316.703 69.4167L302.395 39.6667H308.203L313.964 51.9444C314.499 53.0463 315.003 54.1324 315.475 55.2028C315.948 56.2731 316.404 57.5796 316.845 59.1222C317.317 57.5796 317.789 56.2731 318.261 55.2028C318.765 54.1009 319.269 53.0148 319.773 51.9444L325.581 39.6667H331.011L316.703 69.4167ZM346.853 68.3778C344.272 68.3778 341.91 67.7324 339.77 66.4417C337.629 65.1194 335.913 63.3565 334.622 61.1528C333.363 58.9491 332.734 56.5093 332.734 53.8333C332.734 51.1574 333.363 48.7176 334.622 46.5139C335.913 44.3102 337.629 42.563 339.77 41.2722C341.91 39.95 344.272 39.2889 346.853 39.2889C348.805 39.2889 350.631 39.6509 352.331 40.375C354.062 41.0991 355.558 42.1065 356.817 43.3972V39.6667H361.539V68H356.817V64.2694C355.558 65.5287 354.062 66.5361 352.331 67.2917C350.631 68.0157 348.805 68.3778 346.853 68.3778ZM347.514 63.75C349.309 63.75 350.93 63.3093 352.378 62.4278C353.858 61.5148 355.022 60.3185 355.872 58.8389C356.754 57.3278 357.195 55.6593 357.195 53.8333C357.195 52.0074 356.754 50.3546 355.872 48.875C355.022 47.3639 353.858 46.1676 352.378 45.2861C350.93 44.3731 349.309 43.9167 347.514 43.9167C345.72 43.9167 344.083 44.3731 342.603 45.2861C341.155 46.1676 339.99 47.3639 339.109 48.875C338.259 50.3546 337.834 52.0074 337.834 53.8333C337.834 55.6593 338.259 57.3278 339.109 58.8389C339.99 60.3185 341.155 61.5148 342.603 62.4278C344.083 63.3093 345.72 63.75 347.514 63.75ZM370.576 68V39.6667H375.299V44.2472C376.337 42.5787 377.675 41.3037 379.312 40.4222C380.981 39.5407 382.775 39.1 384.696 39.1C386.711 39.1 388.568 39.6037 390.268 40.6111C391.999 41.587 393.4 43.0194 394.471 44.9083C395.541 46.7657 396.076 49.0324 396.076 51.7083V68H390.976V52.4167C390.976 50.1815 390.299 48.2139 388.946 46.5139C387.624 44.7824 385.75 43.9167 383.326 43.9167C381.343 43.9167 379.564 44.6407 377.99 46.0889C376.448 47.5056 375.676 49.5676 375.676 52.275V68H370.576ZM417.61 68.5667C414.839 68.5667 412.321 67.9056 410.054 66.5833C407.787 65.2611 405.977 63.4824 404.624 61.2472C403.27 59.012 402.593 56.5407 402.593 53.8333C402.593 51.1259 403.27 48.6546 404.624 46.4194C405.977 44.1843 407.787 42.4056 410.054 41.0833C412.321 39.7611 414.839 39.1 417.61 39.1C419.656 39.1 421.576 39.462 423.371 40.1861C425.165 40.9102 426.739 41.8704 428.093 43.0667L426.535 49.4889C425.748 47.9148 424.551 46.5926 422.946 45.5222C421.372 44.4519 419.577 43.9167 417.562 43.9167C415.736 43.9167 414.068 44.3731 412.557 45.2861C411.077 46.1676 409.897 47.3639 409.015 48.875C408.134 50.3546 407.693 52.0074 407.693 53.8333C407.693 55.6278 408.134 57.2806 409.015 58.7917C409.897 60.3028 411.077 61.5148 412.557 62.4278C414.068 63.3093 415.736 63.75 417.562 63.75C419.577 63.75 421.372 63.2306 422.946 62.1917C424.551 61.1528 425.748 59.8148 426.535 58.1778L428.093 64.6C426.739 65.7963 425.165 66.7565 423.371 67.4806C421.576 68.2046 419.656 68.5667 417.61 68.5667ZM434.326 68V22.6667H439.426V43.6806C440.497 42.2009 441.819 41.0676 443.393 40.2806C444.967 39.4935 446.651 39.1 448.446 39.1C450.461 39.1 452.318 39.6037 454.018 40.6111C455.749 41.587 457.15 43.0194 458.221 44.9083C459.291 46.7657 459.826 49.0324 459.826 51.7083V68H454.726V52.4167C454.726 50.1815 454.049 48.2139 452.696 46.5139C451.374 44.7824 449.5 43.9167 447.076 43.9167C445.093 43.9167 443.314 44.6407 441.74 46.0889C440.198 47.5056 439.426 49.5676 439.426 52.275V68H434.326ZM468.326 68V22.6667H473.426V43.6806C474.497 42.2009 475.819 41.0676 477.393 40.2806C478.967 39.4935 480.651 39.1 482.446 39.1C484.461 39.1 486.318 39.6037 488.018 40.6111C489.749 41.587 491.15 43.0194 492.221 44.9083C493.291 46.7657 493.826 49.0324 493.826 51.7083V68H488.726V52.4167C488.726 50.1815 488.049 48.2139 486.696 46.5139C485.374 44.7824 483.5 43.9167 481.076 43.9167C479.093 43.9167 477.314 44.6407 475.74 46.0889C474.198 47.5056 473.426 49.5676 473.426 52.275V68H468.326ZM515.832 68.5667C512.873 68.5667 510.212 67.9056 507.851 66.5833C505.522 65.2611 503.68 63.4667 502.326 61.2C501.004 58.9019 500.343 56.3519 500.343 53.55C500.343 50.8741 500.988 48.45 502.279 46.2778C503.57 44.0741 505.301 42.3269 507.474 41.0361C509.677 39.7454 512.101 39.1 514.746 39.1C517.359 39.1 519.751 39.7296 521.924 40.9889C524.096 42.2167 525.827 43.8852 527.118 45.9944C528.409 48.1037 529.054 50.4963 529.054 53.1722V55.25H510.543C509.724 55.25 508.89 55.2185 508.04 55.1556C507.19 55.0926 506.356 54.9981 505.537 54.8722C505.884 57.3907 507.017 59.5 508.937 61.2C510.889 62.9 513.203 63.75 515.879 63.75C517.674 63.75 519.342 63.3407 520.885 62.5222C522.427 61.7037 523.671 60.6176 524.615 59.2639L526.032 65.0722C524.678 66.1741 523.12 67.0398 521.357 67.6694C519.625 68.2676 517.784 68.5667 515.832 68.5667ZM505.396 51.425C507.096 51.1417 508.811 51 510.543 51H519.94C520.633 51 521.31 51.0315 521.971 51.0944C522.663 51.1259 523.356 51.1731 524.049 51.2361C523.608 49.0324 522.506 47.2222 520.743 45.8056C518.98 44.3574 516.981 43.6333 514.746 43.6333C512.448 43.6333 510.433 44.4046 508.701 45.9472C506.97 47.4583 505.868 49.2843 505.396 51.425ZM533.751 82.1667L542.96 63.8444L530.965 39.6667H536.726L542.771 51.9444C543.306 53.0463 543.825 54.1324 544.329 55.2028C544.833 56.2731 545.336 57.5639 545.84 59.075C546.375 57.5639 546.879 56.2731 547.351 55.2028C547.855 54.1009 548.39 53.0148 548.957 51.9444L555.096 39.6667H560.526L539.276 82.1667H533.751Z" fill="#A26B55"/>
<path d="M44.2 38L51.2667 24H52.0667L59.1333 38H44.2ZM49.6667 69.6L26.6667 42H49.6667V69.6ZM53.6667 69.6V42H76.6667L53.6667 69.6ZM63.5333 38L56.6 24H70.3333L77.3333 38H63.5333ZM26 38L33 24H46.7333L39.8 38H26Z" fill="#A26B55"/>
</svg>
