<svg width="335" height="115" viewBox="0 0 335 115" fill="none" xmlns="http://www.w3.org/2000/svg">
<path d="M0 20C0 8.9543 6.63649 0 14.823 0H320.177C328.364 0 335 8.9543 335 20V95C335 106.046 328.336 115 320.15 115C203.315 115 131.685 115 14.8503 115C6.66377 115 0 106.046 0 95V20Z" fill="#1829EB"/>
<path d="M0 20C0 8.9543 6.63649 0 14.823 0H320.177C328.364 0 335 8.9543 335 20V95C335 106.046 328.336 115 320.15 115C203.315 115 131.685 115 14.8503 115C6.66377 115 0 106.046 0 95V20Z" fill="#B1460C"/>
<path d="M54.9219 53H43.9063C43.8281 52.0885 43.6198 51.2617 43.2813 50.5195C42.9557 49.7773 42.5 49.1393 41.9141 48.6055C41.3411 48.0586 40.6445 47.6419 39.8242 47.3555C39.0039 47.056 38.0729 46.9062 37.0313 46.9062C35.2083 46.9062 33.6654 47.349 32.4023 48.2344C31.1523 49.1198 30.2018 50.3893 29.5508 52.043C28.9128 53.6966 28.5938 55.6823 28.5938 58C28.5938 60.4479 28.9193 62.4987 29.5703 64.1523C30.2344 65.793 31.1914 67.0299 32.4414 67.8633C33.6914 68.6836 35.1953 69.0937 36.9531 69.0937C37.9557 69.0937 38.8542 68.9701 39.6484 68.7227C40.4427 68.4622 41.1328 68.0911 41.7188 67.6094C42.3047 67.1276 42.7799 66.5482 43.1445 65.8711C43.5221 65.181 43.776 64.4062 43.9063 63.5469L54.9219 63.625C54.7917 65.3177 54.3164 67.043 53.4961 68.8008C52.6758 70.5456 51.5104 72.1602 50 73.6445C48.5026 75.1159 46.6471 76.3008 44.4336 77.1992C42.2201 78.0977 39.6484 78.5469 36.7188 78.5469C33.0469 78.5469 29.7526 77.7591 26.8359 76.1836C23.9323 74.6081 21.6341 72.2904 19.9414 69.2305C18.2617 66.1706 17.4219 62.4271 17.4219 58C17.4219 53.5469 18.2813 49.7969 20 46.75C21.7188 43.6901 24.0365 41.3789 26.9531 39.8164C29.8698 38.2409 33.125 37.4531 36.7188 37.4531C39.2448 37.4531 41.569 37.7982 43.6914 38.4883C45.8138 39.1784 47.6758 40.1875 49.2773 41.5156C50.8789 42.8307 52.168 44.4518 53.1445 46.3789C54.1211 48.306 54.7135 50.513 54.9219 53ZM60.0049 78V48H70.4736V53.7031H70.7861C71.333 51.5937 72.1989 50.0508 73.3838 49.0742C74.5817 48.0977 75.9814 47.6094 77.583 47.6094C78.0518 47.6094 78.514 47.6484 78.9697 47.7266C79.4385 47.7917 79.8877 47.8893 80.3174 48.0195V57.2188C79.7835 57.0365 79.126 56.8997 78.3447 56.8086C77.5635 56.7174 76.8929 56.6719 76.333 56.6719C75.2783 56.6719 74.3278 56.9128 73.4814 57.3945C72.6481 57.8633 71.9906 58.5273 71.5088 59.3867C71.027 60.2331 70.7861 61.2292 70.7861 62.375V78H60.0049ZM83.8525 78V48H94.6338V78H83.8525ZM89.2432 44.875C87.7848 44.875 86.5348 44.3932 85.4932 43.4297C84.4515 42.4661 83.9307 41.3073 83.9307 39.9531C83.9307 38.599 84.4515 37.4401 85.4932 36.4766C86.5348 35.513 87.7848 35.0312 89.2432 35.0312C90.7145 35.0312 91.9645 35.513 92.9932 36.4766C94.0348 37.4401 94.5557 38.599 94.5557 39.9531C94.5557 41.3073 94.0348 42.4661 92.9932 43.4297C91.9645 44.3932 90.7145 44.875 89.2432 44.875ZM118.018 48V55.8125H98.252V48H118.018ZM102.08 40.8125H112.861V68.3516C112.861 68.7682 112.933 69.1198 113.076 69.4062C113.219 69.6797 113.441 69.888 113.74 70.0312C114.04 70.1615 114.424 70.2266 114.893 70.2266C115.218 70.2266 115.596 70.1875 116.025 70.1094C116.468 70.0312 116.794 69.9661 117.002 69.9141L118.564 77.4922C118.083 77.6354 117.393 77.8112 116.494 78.0195C115.609 78.2279 114.554 78.3646 113.33 78.4297C110.856 78.5599 108.779 78.306 107.1 77.668C105.42 77.0169 104.157 75.9948 103.311 74.6016C102.464 73.2083 102.054 71.4635 102.08 69.3672V40.8125ZM122.417 78V48H133.198V78H122.417ZM127.808 44.875C126.349 44.875 125.099 44.3932 124.058 43.4297C123.016 42.4661 122.495 41.3073 122.495 39.9531C122.495 38.599 123.016 37.4401 124.058 36.4766C125.099 35.513 126.349 35.0312 127.808 35.0312C129.279 35.0312 130.529 35.513 131.558 36.4766C132.599 37.4401 133.12 38.599 133.12 39.9531C133.12 41.3073 132.599 42.4661 131.558 43.4297C130.529 44.3932 129.279 44.875 127.808 44.875ZM153.145 78.5469C149.889 78.5469 147.103 77.9023 144.785 76.6133C142.467 75.3112 140.69 73.5013 139.453 71.1836C138.216 68.8529 137.598 66.151 137.598 63.0781C137.598 60.0052 138.216 57.3099 139.453 54.9922C140.69 52.6615 142.467 50.8516 144.785 49.5625C147.103 48.2604 149.889 47.6094 153.145 47.6094C156.087 47.6094 158.633 48.1432 160.781 49.2109C162.943 50.2656 164.616 51.763 165.801 53.7031C166.986 55.6302 167.585 57.8958 167.598 60.5H157.598C157.454 58.9245 156.999 57.7266 156.23 56.9062C155.475 56.0729 154.499 55.6562 153.301 55.6562C152.363 55.6562 151.543 55.9297 150.84 56.4766C150.137 57.0104 149.59 57.8242 149.199 58.918C148.809 59.9987 148.613 61.3594 148.613 63C148.613 64.6406 148.809 66.0078 149.199 67.1016C149.59 68.1823 150.137 68.9961 150.84 69.543C151.543 70.0768 152.363 70.3437 153.301 70.3437C154.095 70.3437 154.798 70.1615 155.41 69.7969C156.022 69.4193 156.517 68.8724 156.895 68.1562C157.285 67.4271 157.52 66.5417 157.598 65.5H167.598C167.559 68.1432 166.953 70.4479 165.781 72.4141C164.609 74.3672 162.949 75.8776 160.801 76.9453C158.665 78.013 156.113 78.5469 153.145 78.5469ZM180.405 78.4688C178.491 78.4688 176.799 78.1563 175.327 77.5312C173.869 76.8932 172.723 75.9297 171.89 74.6406C171.056 73.3516 170.64 71.7109 170.64 69.7187C170.64 68.0781 170.92 66.6784 171.479 65.5195C172.039 64.3477 172.821 63.3906 173.823 62.6484C174.826 61.9062 175.991 61.3398 177.319 60.9492C178.66 60.5586 180.106 60.3047 181.655 60.1875C183.335 60.0573 184.683 59.901 185.698 59.7187C186.727 59.5234 187.469 59.2565 187.925 58.918C188.381 58.5664 188.608 58.1042 188.608 57.5312V57.4531C188.608 56.6719 188.309 56.0729 187.71 55.6562C187.111 55.2396 186.343 55.0312 185.405 55.0312C184.377 55.0312 183.537 55.2591 182.886 55.7148C182.248 56.1576 181.864 56.8411 181.733 57.7656H171.812C171.942 55.9427 172.521 54.263 173.55 52.7266C174.591 51.1771 176.108 49.9401 178.101 49.0156C180.093 48.0781 182.58 47.6094 185.562 47.6094C187.71 47.6094 189.637 47.8633 191.343 48.3711C193.049 48.8659 194.5 49.5625 195.698 50.4609C196.896 51.3464 197.808 52.388 198.433 53.5859C199.071 54.7708 199.39 56.0599 199.39 57.4531V78H189.312V73.7812H189.077C188.478 74.901 187.749 75.806 186.89 76.4961C186.043 77.1862 185.073 77.6875 183.979 78C182.899 78.3125 181.707 78.4688 180.405 78.4688ZM183.921 71.6719C184.741 71.6719 185.509 71.5026 186.226 71.1641C186.955 70.8255 187.547 70.3372 188.003 69.6992C188.459 69.0612 188.687 68.2865 188.687 67.375V64.875C188.4 64.9922 188.094 65.1029 187.769 65.207C187.456 65.3112 187.118 65.4089 186.753 65.5C186.401 65.5911 186.024 65.6758 185.62 65.7539C185.229 65.832 184.819 65.9036 184.39 65.9688C183.556 66.099 182.873 66.3138 182.339 66.6133C181.818 66.8997 181.427 67.2578 181.167 67.6875C180.92 68.1042 180.796 68.5729 180.796 69.0937C180.796 69.9271 181.089 70.5651 181.675 71.0078C182.261 71.4505 183.009 71.6719 183.921 71.6719ZM215.322 38V78H204.541V38H215.322Z" fill="white"/>
<path fill-rule="evenodd" clip-rule="evenodd" d="M284.87 30.761C284.741 30.53 284.554 30.3378 284.329 30.2041C284.104 30.0704 283.848 30 283.587 30C283.326 30 283.07 30.0704 282.844 30.2041C282.619 30.3378 282.432 30.53 282.304 30.761L257.192 75.7574C257.065 75.9856 256.999 76.2437 257 76.5062C257.001 76.7686 257.07 77.0261 257.2 77.253C257.329 77.4799 257.515 77.6683 257.738 77.7994C257.961 77.9304 258.215 77.9996 258.472 78H308.701C308.959 78.0001 309.213 77.9313 309.436 77.8005C309.66 77.6696 309.846 77.4813 309.976 77.2543C310.106 77.0273 310.175 76.7696 310.176 76.5069C310.178 76.2442 310.111 75.9858 309.984 75.7574L303.289 63.7637C300.869 64.0429 298.422 63.5924 296.251 62.468C294.08 61.3436 292.282 59.5949 291.079 57.439C289.876 55.2831 289.321 52.815 289.484 50.3411C289.647 47.8672 290.52 45.4964 291.995 43.5232L284.87 30.761ZM281.345 51.7311C281.345 51.1339 281.578 50.5612 281.993 50.1389C282.408 49.7167 282.971 49.4795 283.557 49.4795C284.144 49.4795 284.706 49.7167 285.121 50.1389C285.536 50.5612 285.769 51.1339 285.769 51.7311V59.2365C285.769 59.8336 285.536 60.4064 285.121 60.8286C284.706 61.2509 284.144 61.4881 283.557 61.4881C282.971 61.4881 282.408 61.2509 281.993 60.8286C281.578 60.4064 281.345 59.8336 281.345 59.2365V51.7311ZM285.769 64.4903V68.9935H281.345V64.4903H285.769Z" fill="white"/>
<path fill-rule="evenodd" clip-rule="evenodd" d="M293.626 46.4475C292.823 47.8945 292.402 49.5289 292.405 51.1909C292.401 52.8646 292.825 54.5106 293.635 55.967C294.445 57.4234 295.614 58.64 297.026 59.4972C298.438 60.3544 300.045 60.8226 301.689 60.8559C303.333 60.8892 304.957 60.4864 306.401 59.687L312.167 65.5533L316 61.6504L310.232 55.7812C311.448 53.5395 311.739 50.8978 311.042 48.4374C310.344 45.9771 308.715 43.8995 306.513 42.6618C304.311 41.424 301.716 41.1275 299.299 41.8375C296.882 42.5475 294.842 44.2057 293.626 46.4475ZM305.953 51.1909C305.953 52.2881 305.525 53.3404 304.763 54.1162C304 54.892 302.967 55.3279 301.889 55.3279C300.811 55.3279 299.778 54.892 299.015 54.1162C298.253 53.3404 297.825 52.2881 297.825 51.1909C297.825 50.0937 298.253 49.0415 299.015 48.2656C299.778 47.4898 300.811 47.0539 301.889 47.0539C302.967 47.0539 304 47.4898 304.763 48.2656C305.525 49.0415 305.953 50.0937 305.953 51.1909Z" fill="white"/>
</svg>
