<svg width="452" height="115" viewBox="0 0 452 115" fill="none" xmlns="http://www.w3.org/2000/svg">
<path d="M0 20C0 8.9543 8.95431 0 20 0H432C443.046 0 452 8.9543 452 20V95C452 106.046 443.009 115 431.963 115C274.324 115 177.676 115 20.0368 115C8.99112 115 0 106.046 0 95V20Z" fill="#1829EB"/>
<path d="M48.4375 38V78H37.5781V38H48.4375ZM64.5215 61.125V78H53.7402V48H63.9746V53.7031H64.2871C64.9382 51.8021 66.084 50.3112 67.7246 49.2305C69.3783 48.1497 71.3053 47.6094 73.5059 47.6094C75.6283 47.6094 77.4707 48.0977 79.0332 49.0742C80.6087 50.0378 81.8262 51.3659 82.6855 53.0586C83.5579 54.7513 83.9876 56.6849 83.9746 58.8594V78H73.1934V61.125C73.2064 59.6406 72.8288 58.4753 72.0605 57.6289C71.3053 56.7826 70.2507 56.3594 68.8965 56.3594C68.0111 56.3594 67.2363 56.5547 66.5723 56.9453C65.9212 57.3229 65.4199 57.8698 65.0684 58.5859C64.7168 59.2891 64.5345 60.1354 64.5215 61.125ZM100.098 78V38H117.363C120.332 38 122.93 38.5859 125.156 39.7578C127.383 40.9297 129.115 42.5768 130.352 44.6992C131.589 46.8216 132.207 49.3021 132.207 52.1406C132.207 55.0052 131.569 57.4857 130.293 59.582C129.03 61.6784 127.253 63.293 124.961 64.4258C122.682 65.5586 120.02 66.125 116.973 66.125H106.66V57.6875H114.785C116.061 57.6875 117.148 57.4661 118.047 57.0234C118.958 56.5677 119.655 55.9232 120.137 55.0898C120.632 54.2565 120.879 53.2734 120.879 52.1406C120.879 50.9948 120.632 50.0182 120.137 49.2109C119.655 48.3906 118.958 47.7656 118.047 47.3359C117.148 46.8932 116.061 46.6719 114.785 46.6719H110.957V78H100.098ZM136.348 78V48H146.816V53.7031H147.129C147.676 51.5937 148.542 50.0508 149.727 49.0742C150.924 48.0977 152.324 47.6094 153.926 47.6094C154.395 47.6094 154.857 47.6484 155.312 47.7266C155.781 47.7917 156.23 47.8893 156.66 48.0195V57.2188C156.126 57.0365 155.469 56.8997 154.688 56.8086C153.906 56.7174 153.236 56.6719 152.676 56.6719C151.621 56.6719 150.671 56.9128 149.824 57.3945C148.991 57.8633 148.333 58.5273 147.852 59.3867C147.37 60.2331 147.129 61.2292 147.129 62.375V78H136.348ZM172.93 78.5469C169.674 78.5469 166.888 77.9023 164.57 76.6133C162.253 75.3112 160.475 73.5013 159.238 71.1836C158.001 68.8529 157.383 66.151 157.383 63.0781C157.383 60.0052 158.001 57.3099 159.238 54.9922C160.475 52.6615 162.253 50.8516 164.57 49.5625C166.888 48.2604 169.674 47.6094 172.93 47.6094C176.185 47.6094 178.971 48.2604 181.289 49.5625C183.607 50.8516 185.384 52.6615 186.621 54.9922C187.858 57.3099 188.477 60.0052 188.477 63.0781C188.477 66.151 187.858 68.8529 186.621 71.1836C185.384 73.5013 183.607 75.3112 181.289 76.6133C178.971 77.9023 176.185 78.5469 172.93 78.5469ZM173.008 70.5781C173.919 70.5781 174.707 70.2721 175.371 69.6602C176.035 69.0482 176.549 68.1758 176.914 67.043C177.279 65.9102 177.461 64.5625 177.461 63C177.461 61.4245 177.279 60.0768 176.914 58.957C176.549 57.8242 176.035 56.9518 175.371 56.3398C174.707 55.7279 173.919 55.4219 173.008 55.4219C172.044 55.4219 171.217 55.7279 170.527 56.3398C169.837 56.9518 169.31 57.8242 168.945 58.957C168.581 60.0768 168.398 61.4245 168.398 63C168.398 64.5625 168.581 65.9102 168.945 67.043C169.31 68.1758 169.837 69.0482 170.527 69.6602C171.217 70.2721 172.044 70.5781 173.008 70.5781ZM207.305 89.875C204.297 89.875 201.719 89.4453 199.57 88.5859C197.435 87.7396 195.775 86.5677 194.59 85.0703C193.418 83.5859 192.76 81.8802 192.617 79.9531H203.008C203.112 80.5911 203.372 81.1055 203.789 81.4961C204.206 81.8867 204.74 82.1667 205.391 82.3359C206.055 82.5182 206.797 82.6094 207.617 82.6094C209.01 82.6094 210.163 82.2708 211.074 81.5938C211.999 80.9167 212.461 79.6927 212.461 77.9219V72.8438H212.148C211.758 73.8594 211.159 74.7253 210.352 75.4414C209.544 76.1445 208.574 76.6849 207.441 77.0625C206.309 77.4271 205.065 77.6094 203.711 77.6094C201.576 77.6094 199.609 77.1146 197.813 76.125C196.029 75.1354 194.596 73.5664 193.516 71.418C192.448 69.2695 191.914 66.4635 191.914 63C191.914 59.3802 192.474 56.4375 193.594 54.1719C194.727 51.9062 196.185 50.2461 197.969 49.1914C199.766 48.1367 201.654 47.6094 203.633 47.6094C205.117 47.6094 206.419 47.8698 207.539 48.3906C208.659 48.8984 209.596 49.582 210.352 50.4414C211.107 51.2878 211.68 52.2187 212.07 53.2344H212.305V48H223.086V77.9219C223.086 80.4609 222.428 82.6159 221.113 84.3867C219.811 86.1706 217.975 87.5313 215.605 88.4688C213.236 89.4063 210.469 89.875 207.305 89.875ZM207.695 69.9531C208.685 69.9531 209.531 69.6797 210.234 69.1328C210.951 68.5729 211.497 67.7786 211.875 66.75C212.266 65.7083 212.461 64.4583 212.461 63C212.461 61.5156 212.266 60.2461 211.875 59.1914C211.497 58.1237 210.951 57.3099 210.234 56.75C209.531 56.1771 208.685 55.8906 207.695 55.8906C206.706 55.8906 205.859 56.1771 205.156 56.75C204.466 57.3099 203.932 58.1237 203.555 59.1914C203.19 60.2461 203.008 61.5156 203.008 63C203.008 64.4844 203.19 65.7474 203.555 66.7891C203.932 67.8177 204.466 68.6055 205.156 69.1523C205.859 69.6862 206.706 69.9531 207.695 69.9531ZM228.569 78V48H239.038V53.7031H239.351C239.897 51.5937 240.763 50.0508 241.948 49.0742C243.146 48.0977 244.546 47.6094 246.147 47.6094C246.616 47.6094 247.078 47.6484 247.534 47.7266C248.003 47.7917 248.452 47.8893 248.882 48.0195V57.2188C248.348 57.0365 247.69 56.8997 246.909 56.8086C246.128 56.7174 245.457 56.6719 244.897 56.6719C243.843 56.6719 242.892 56.9128 242.046 57.3945C241.213 57.8633 240.555 58.5273 240.073 59.3867C239.591 60.2331 239.351 61.2292 239.351 62.375V78H228.569ZM265.073 78.5469C261.87 78.5469 259.11 77.9349 256.792 76.7109C254.487 75.474 252.71 73.7031 251.46 71.3984C250.223 69.0807 249.604 66.3073 249.604 63.0781C249.604 59.9792 250.229 57.2708 251.479 54.9531C252.729 52.6354 254.494 50.832 256.772 49.543C259.051 48.2539 261.74 47.6094 264.839 47.6094C267.104 47.6094 269.155 47.9609 270.991 48.6641C272.827 49.3672 274.396 50.3893 275.698 51.7305C277 53.0586 278.003 54.6732 278.706 56.5742C279.409 58.4753 279.761 60.6172 279.761 63V65.5H252.964V59.5625H269.839C269.826 58.7031 269.604 57.9479 269.175 57.2969C268.758 56.6328 268.192 56.1185 267.476 55.7539C266.772 55.3763 265.972 55.1875 265.073 55.1875C264.201 55.1875 263.4 55.3763 262.671 55.7539C261.942 56.1185 261.356 56.6263 260.913 57.2773C260.483 57.9284 260.256 58.6901 260.229 59.5625V65.9688C260.229 66.9323 260.431 67.7917 260.835 68.5469C261.239 69.3021 261.818 69.8945 262.573 70.3242C263.328 70.7539 264.24 70.9688 265.308 70.9688C266.05 70.9688 266.727 70.8646 267.339 70.6562C267.964 70.4479 268.498 70.1484 268.94 69.7578C269.383 69.3542 269.709 68.8724 269.917 68.3125H279.761C279.422 70.3958 278.621 72.2057 277.358 73.7422C276.095 75.2656 274.422 76.4505 272.339 77.2969C270.269 78.1302 267.847 78.5469 265.073 78.5469ZM311.582 57.7656H301.66C301.608 57.1536 301.393 56.6263 301.016 56.1836C300.638 55.7409 300.15 55.4023 299.551 55.168C298.965 54.9206 298.314 54.7969 297.598 54.7969C296.673 54.7969 295.879 54.9661 295.215 55.3047C294.551 55.6432 294.225 56.125 294.238 56.75C294.225 57.1927 294.414 57.6029 294.805 57.9805C295.208 58.3581 295.983 58.651 297.129 58.8594L303.223 59.9531C306.296 60.513 308.581 61.457 310.078 62.7852C311.589 64.1003 312.35 65.8646 312.363 68.0781C312.35 70.2135 311.712 72.069 310.449 73.6445C309.199 75.207 307.487 76.418 305.313 77.2773C303.151 78.1237 300.684 78.5469 297.91 78.5469C293.327 78.5469 289.74 77.6094 287.148 75.7344C284.57 73.8594 283.132 71.3854 282.832 68.3125H293.535C293.678 69.263 294.147 69.9987 294.941 70.5195C295.749 71.0273 296.764 71.2812 297.988 71.2812C298.978 71.2812 299.792 71.112 300.43 70.7734C301.081 70.4349 301.413 69.9531 301.426 69.3281C301.413 68.7552 301.126 68.2995 300.566 67.9609C300.02 67.6224 299.16 67.349 297.988 67.1406L292.676 66.2031C289.616 65.6693 287.324 64.6536 285.801 63.1562C284.277 61.6589 283.522 59.7318 283.535 57.375C283.522 55.2917 284.069 53.5273 285.176 52.082C286.296 50.6237 287.891 49.5169 289.961 48.7617C292.044 47.9935 294.512 47.6094 297.363 47.6094C301.699 47.6094 305.117 48.5078 307.617 50.3047C310.13 52.1016 311.452 54.5885 311.582 57.7656ZM343.916 57.7656H333.994C333.942 57.1536 333.727 56.6263 333.35 56.1836C332.972 55.7409 332.484 55.4023 331.885 55.168C331.299 54.9206 330.648 54.7969 329.932 54.7969C329.007 54.7969 328.213 54.9661 327.549 55.3047C326.885 55.6432 326.559 56.125 326.572 56.75C326.559 57.1927 326.748 57.6029 327.139 57.9805C327.542 58.3581 328.317 58.651 329.463 58.8594L335.557 59.9531C338.63 60.513 340.915 61.457 342.412 62.7852C343.923 64.1003 344.684 65.8646 344.697 68.0781C344.684 70.2135 344.046 72.069 342.783 73.6445C341.533 75.207 339.821 76.418 337.646 77.2773C335.485 78.1237 333.018 78.5469 330.244 78.5469C325.661 78.5469 322.074 77.6094 319.482 75.7344C316.904 73.8594 315.465 71.3854 315.166 68.3125H325.869C326.012 69.263 326.481 69.9987 327.275 70.5195C328.083 71.0273 329.098 71.2812 330.322 71.2812C331.312 71.2812 332.126 71.112 332.764 70.7734C333.415 70.4349 333.747 69.9531 333.76 69.3281C333.747 68.7552 333.46 68.2995 332.9 67.9609C332.354 67.6224 331.494 67.349 330.322 67.1406L325.01 66.2031C321.95 65.6693 319.658 64.6536 318.135 63.1562C316.611 61.6589 315.856 59.7318 315.869 57.375C315.856 55.2917 316.403 53.5273 317.51 52.082C318.63 50.6237 320.225 49.5169 322.295 48.7617C324.378 47.9935 326.846 47.6094 329.697 47.6094C334.033 47.6094 337.451 48.5078 339.951 50.3047C342.464 52.1016 343.786 54.5885 343.916 57.7656Z" fill="white"/>
<path d="M0 20C0 8.9543 8.95431 0 20 0H432C443.046 0 452 8.9543 452 20V95C452 106.046 443.009 115 431.963 115C274.324 115 177.676 115 20.0368 115C8.99112 115 0 106.046 0 95V20Z" fill="#B1460C"/>
<path d="M74.9219 53H63.9063C63.8281 52.0885 63.6198 51.2617 63.2813 50.5195C62.9557 49.7773 62.5 49.1393 61.9141 48.6055C61.3411 48.0586 60.6445 47.6419 59.8242 47.3555C59.0039 47.056 58.0729 46.9062 57.0313 46.9062C55.2083 46.9062 53.6654 47.349 52.4023 48.2344C51.1523 49.1198 50.2018 50.3893 49.5508 52.043C48.9128 53.6966 48.5938 55.6823 48.5938 58C48.5938 60.4479 48.9193 62.4987 49.5703 64.1523C50.2344 65.793 51.1914 67.0299 52.4414 67.8633C53.6914 68.6836 55.1953 69.0937 56.9531 69.0937C57.9557 69.0937 58.8542 68.9701 59.6484 68.7227C60.4427 68.4622 61.1328 68.0911 61.7188 67.6094C62.3047 67.1276 62.7799 66.5482 63.1445 65.8711C63.5221 65.181 63.776 64.4062 63.9063 63.5469L74.9219 63.625C74.7917 65.3177 74.3164 67.043 73.4961 68.8008C72.6758 70.5456 71.5104 72.1602 70 73.6445C68.5026 75.1159 66.6471 76.3008 64.4336 77.1992C62.2201 78.0977 59.6484 78.5469 56.7188 78.5469C53.0469 78.5469 49.7526 77.7591 46.8359 76.1836C43.9323 74.6081 41.6341 72.2904 39.9414 69.2305C38.2617 66.1706 37.4219 62.4271 37.4219 58C37.4219 53.5469 38.2813 49.7969 40 46.75C41.7188 43.6901 44.0365 41.3789 46.9531 39.8164C49.8698 38.2409 53.125 37.4531 56.7188 37.4531C59.2448 37.4531 61.569 37.7982 63.6914 38.4883C65.8138 39.1784 67.6758 40.1875 69.2773 41.5156C70.8789 42.8307 72.168 44.4518 73.1445 46.3789C74.1211 48.306 74.7135 50.513 74.9219 53ZM80.0049 78V48H90.4736V53.7031H90.7861C91.333 51.5937 92.1989 50.0508 93.3838 49.0742C94.5817 48.0977 95.9814 47.6094 97.583 47.6094C98.0518 47.6094 98.514 47.6484 98.9697 47.7266C99.4385 47.7917 99.8877 47.8893 100.317 48.0195V57.2188C99.7835 57.0365 99.126 56.8997 98.3447 56.8086C97.5635 56.7174 96.8929 56.6719 96.333 56.6719C95.2783 56.6719 94.3278 56.9128 93.4814 57.3945C92.6481 57.8633 91.9906 58.5273 91.5088 59.3867C91.027 60.2331 90.7861 61.2292 90.7861 62.375V78H80.0049ZM103.853 78V48H114.634V78H103.853ZM109.243 44.875C107.785 44.875 106.535 44.3932 105.493 43.4297C104.451 42.4661 103.931 41.3073 103.931 39.9531C103.931 38.599 104.451 37.4401 105.493 36.4766C106.535 35.513 107.785 35.0312 109.243 35.0312C110.715 35.0312 111.965 35.513 112.993 36.4766C114.035 37.4401 114.556 38.599 114.556 39.9531C114.556 41.3073 114.035 42.4661 112.993 43.4297C111.965 44.3932 110.715 44.875 109.243 44.875ZM138.018 48V55.8125H118.252V48H138.018ZM122.08 40.8125H132.861V68.3516C132.861 68.7682 132.933 69.1198 133.076 69.4062C133.219 69.6797 133.441 69.888 133.74 70.0312C134.04 70.1615 134.424 70.2266 134.893 70.2266C135.218 70.2266 135.596 70.1875 136.025 70.1094C136.468 70.0312 136.794 69.9661 137.002 69.9141L138.564 77.4922C138.083 77.6354 137.393 77.8112 136.494 78.0195C135.609 78.2279 134.554 78.3646 133.33 78.4297C130.856 78.5599 128.779 78.306 127.1 77.668C125.42 77.0169 124.157 75.9948 123.311 74.6016C122.464 73.2083 122.054 71.4635 122.08 69.3672V40.8125ZM142.417 78V48H153.198V78H142.417ZM147.808 44.875C146.349 44.875 145.099 44.3932 144.058 43.4297C143.016 42.4661 142.495 41.3073 142.495 39.9531C142.495 38.599 143.016 37.4401 144.058 36.4766C145.099 35.513 146.349 35.0312 147.808 35.0312C149.279 35.0312 150.529 35.513 151.558 36.4766C152.599 37.4401 153.12 38.599 153.12 39.9531C153.12 41.3073 152.599 42.4661 151.558 43.4297C150.529 44.3932 149.279 44.875 147.808 44.875ZM173.145 78.5469C169.889 78.5469 167.103 77.9023 164.785 76.6133C162.467 75.3112 160.69 73.5013 159.453 71.1836C158.216 68.8529 157.598 66.151 157.598 63.0781C157.598 60.0052 158.216 57.3099 159.453 54.9922C160.69 52.6615 162.467 50.8516 164.785 49.5625C167.103 48.2604 169.889 47.6094 173.145 47.6094C176.087 47.6094 178.633 48.1432 180.781 49.2109C182.943 50.2656 184.616 51.763 185.801 53.7031C186.986 55.6302 187.585 57.8958 187.598 60.5H177.598C177.454 58.9245 176.999 57.7266 176.23 56.9062C175.475 56.0729 174.499 55.6562 173.301 55.6562C172.363 55.6562 171.543 55.9297 170.84 56.4766C170.137 57.0104 169.59 57.8242 169.199 58.918C168.809 59.9987 168.613 61.3594 168.613 63C168.613 64.6406 168.809 66.0078 169.199 67.1016C169.59 68.1823 170.137 68.9961 170.84 69.543C171.543 70.0768 172.363 70.3437 173.301 70.3437C174.095 70.3437 174.798 70.1615 175.41 69.7969C176.022 69.4193 176.517 68.8724 176.895 68.1562C177.285 67.4271 177.52 66.5417 177.598 65.5H187.598C187.559 68.1432 186.953 70.4479 185.781 72.4141C184.609 74.3672 182.949 75.8776 180.801 76.9453C178.665 78.013 176.113 78.5469 173.145 78.5469ZM200.405 78.4688C198.491 78.4688 196.799 78.1563 195.327 77.5312C193.869 76.8932 192.723 75.9297 191.89 74.6406C191.056 73.3516 190.64 71.7109 190.64 69.7187C190.64 68.0781 190.92 66.6784 191.479 65.5195C192.039 64.3477 192.821 63.3906 193.823 62.6484C194.826 61.9062 195.991 61.3398 197.319 60.9492C198.66 60.5586 200.106 60.3047 201.655 60.1875C203.335 60.0573 204.683 59.901 205.698 59.7187C206.727 59.5234 207.469 59.2565 207.925 58.918C208.381 58.5664 208.608 58.1042 208.608 57.5312V57.4531C208.608 56.6719 208.309 56.0729 207.71 55.6562C207.111 55.2396 206.343 55.0312 205.405 55.0312C204.377 55.0312 203.537 55.2591 202.886 55.7148C202.248 56.1576 201.864 56.8411 201.733 57.7656H191.812C191.942 55.9427 192.521 54.263 193.55 52.7266C194.591 51.1771 196.108 49.9401 198.101 49.0156C200.093 48.0781 202.58 47.6094 205.562 47.6094C207.71 47.6094 209.637 47.8633 211.343 48.3711C213.049 48.8659 214.5 49.5625 215.698 50.4609C216.896 51.3464 217.808 52.388 218.433 53.5859C219.071 54.7708 219.39 56.0599 219.39 57.4531V78H209.312V73.7812H209.077C208.478 74.901 207.749 75.806 206.89 76.4961C206.043 77.1862 205.073 77.6875 203.979 78C202.899 78.3125 201.707 78.4688 200.405 78.4688ZM203.921 71.6719C204.741 71.6719 205.509 71.5026 206.226 71.1641C206.955 70.8255 207.547 70.3372 208.003 69.6992C208.459 69.0612 208.687 68.2865 208.687 67.375V64.875C208.4 64.9922 208.094 65.1029 207.769 65.207C207.456 65.3112 207.118 65.4089 206.753 65.5C206.401 65.5911 206.024 65.6758 205.62 65.7539C205.229 65.832 204.819 65.9036 204.39 65.9688C203.556 66.099 202.873 66.3138 202.339 66.6133C201.818 66.8997 201.427 67.2578 201.167 67.6875C200.92 68.1042 200.796 68.5729 200.796 69.0937C200.796 69.9271 201.089 70.5651 201.675 71.0078C202.261 71.4505 203.009 71.6719 203.921 71.6719ZM235.322 38V78H224.541V38H235.322Z" fill="white"/>
<path d="M371.203 75.7108C371.069 75.9437 370.999 76.2073 371 76.4751C371.001 76.743 371.074 77.0059 371.211 77.2375C371.348 77.4691 371.544 77.6614 371.78 77.7952C372.016 77.929 372.284 77.9996 372.556 78H425.637C425.909 77.9996 426.177 77.929 426.413 77.7952C426.649 77.6614 426.845 77.4691 426.982 77.2375C427.119 77.0059 427.192 76.743 427.193 76.4751C427.194 76.2073 427.124 75.9437 426.99 75.7108L419.915 63.4681C417.081 63.7789 414.221 63.1801 411.762 61.7611L417.603 71.874H380.59L399.097 39.8406L405.298 50.5726C405.311 47.6521 406.308 44.9645 407.979 42.8071L400.452 29.7768C400.316 29.541 400.119 29.3448 399.881 29.2084C399.643 29.0719 399.372 29 399.097 29C398.821 29 398.55 29.0719 398.312 29.2084C398.074 29.3448 397.877 29.541 397.741 29.7768L371.203 75.7108Z" fill="white"/>
<path fill-rule="evenodd" clip-rule="evenodd" d="M409.705 45.7921C410.99 43.5037 413.147 41.811 415.701 41.0863C418.255 40.3616 420.997 40.6643 423.325 41.9277C425.652 43.1912 427.373 45.3119 428.11 47.8234C428.847 50.3348 428.539 53.0313 427.255 55.3197L433.347 61.3108L429.296 65.2947L423.206 59.3035C421.669 60.1222 419.939 60.5291 418.192 60.4834C415.576 60.4249 413.087 59.361 411.26 57.5198C409.432 55.6787 408.411 53.2068 408.415 50.634M418.438 54.8569C419.577 54.8569 420.669 54.412 421.475 53.6201C422.28 52.8281 422.732 51.754 422.732 50.634C422.732 49.514 422.28 48.4399 421.475 47.648C420.669 46.856 419.577 46.4111 418.438 46.4111C417.299 46.4111 416.207 46.856 415.401 47.648C414.596 48.4399 414.143 49.514 414.143 50.634C414.143 51.754 414.596 52.8281 415.401 53.6201C416.207 54.412 417.299 54.8569 418.438 54.8569Z" fill="white"/>
<path d="M408.415 50.6337C408.412 48.9371 408.857 47.2688 409.705 45.7917L408.415 50.6337ZM396.728 68.8063V64.2095H401.403V68.8063H396.728ZM399.065 50.4192C398.446 50.4192 397.851 50.6613 397.413 51.0924C396.974 51.5234 396.728 52.108 396.728 52.7176V60.3788C396.728 60.9884 396.974 61.573 397.413 62.004C397.851 62.4351 398.446 62.6772 399.065 62.6772C399.685 62.6772 400.28 62.4351 400.718 62.004C401.157 61.573 401.403 60.9884 401.403 60.3788V52.7176C401.403 52.108 401.157 51.5234 400.718 51.0924C400.28 50.6613 399.685 50.4192 399.065 50.4192Z" fill="white"/>
</svg>
