<svg width="401" height="69" viewBox="0 0 401 69" fill="none" xmlns="http://www.w3.org/2000/svg">
<path d="M35 48.5C35 58.165 27.165 66 17.5 66C7.835 66 0 58.165 0 48.5C0 38.835 7.835 31 17.5 31C27.165 31 35 38.835 35 48.5Z" fill="url(#paint0_radial_76_400)"/>
<path d="M35 48.5C35 58.165 27.165 66 17.5 66C7.835 66 0 58.165 0 48.5C0 38.835 7.835 31 17.5 31C27.165 31 35 38.835 35 48.5Z" fill="url(#paint1_linear_76_400)"/>
<path d="M35 48.5C35 58.165 27.165 66 17.5 66C7.835 66 0 58.165 0 48.5C0 38.835 7.835 31 17.5 31C27.165 31 35 38.835 35 48.5Z" fill="url(#paint2_radial_76_400)"/>
<path d="M35 48.5C35 58.165 27.165 66 17.5 66C7.835 66 0 58.165 0 48.5C0 38.835 7.835 31 17.5 31C27.165 31 35 38.835 35 48.5Z" fill="url(#paint3_radial_76_400)"/>
<path d="M62.95 68V24.0833L82.6889 51.2833L102.05 24.0833V68H96.6667V48.3556C96.6667 47.0648 96.6824 45.6639 96.7139 44.1528C96.7454 42.6102 96.8556 40.863 97.0444 38.9111C96.0685 40.6426 95.1083 42.1694 94.1639 43.4917C93.2509 44.7824 92.4167 45.9787 91.6611 47.0806L82.5 60.0667L73.0556 47.0806C72.2685 45.9787 71.4185 44.7824 70.5056 43.4917C69.6241 42.1694 68.6796 40.6426 67.6722 38.9111C67.8611 40.863 67.9713 42.6102 68.0028 44.1528C68.0343 45.6639 68.05 47.0648 68.05 48.3556V68H62.95ZM126.039 68.5667C123.08 68.5667 120.419 67.9056 118.058 66.5833C115.729 65.2611 113.887 63.4667 112.533 61.2C111.211 58.9019 110.55 56.3519 110.55 53.55C110.55 50.8741 111.195 48.45 112.486 46.2778C113.777 44.0741 115.508 42.3269 117.681 41.0361C119.884 39.7454 122.308 39.1 124.953 39.1C127.566 39.1 129.958 39.7296 132.131 40.9889C134.303 42.2167 136.034 43.8852 137.325 45.9944C138.616 48.1037 139.261 50.4963 139.261 53.1722V55.25H120.75C119.931 55.25 119.097 55.2185 118.247 55.1556C117.397 55.0926 116.563 54.9981 115.744 54.8722C116.091 57.3907 117.224 59.5 119.144 61.2C121.096 62.9 123.41 63.75 126.086 63.75C127.881 63.75 129.549 63.3407 131.092 62.5222C132.634 61.7037 133.878 60.6176 134.822 59.2639L136.239 65.0722C134.885 66.1741 133.327 67.0398 131.564 67.6694C129.832 68.2676 127.991 68.5667 126.039 68.5667ZM115.603 51.425C117.303 51.1417 119.019 51 120.75 51H130.147C130.84 51 131.517 51.0315 132.178 51.0944C132.87 51.1259 133.563 51.1731 134.256 51.2361C133.815 49.0324 132.713 47.2222 130.95 45.8056C129.187 44.3574 127.188 43.6333 124.953 43.6333C122.655 43.6333 120.64 44.4046 118.908 45.9472C117.177 47.4583 116.075 49.2843 115.603 51.425ZM158.205 68.3778C155.623 68.3778 153.262 67.7324 151.121 66.4417C148.981 65.1194 147.265 63.3565 145.974 61.1528C144.715 58.9491 144.085 56.5093 144.085 53.8333C144.085 51.1574 144.715 48.7176 145.974 46.5139C147.265 44.3102 148.981 42.563 151.121 41.2722C153.262 39.95 155.623 39.2889 158.205 39.2889C160.062 39.2889 161.809 39.6194 163.446 40.2806C165.083 40.9417 166.531 41.8546 167.791 43.0194V22.6667H172.891V68H168.168V64.2694C166.909 65.5287 165.414 66.5361 163.682 67.2917C161.982 68.0157 160.156 68.3778 158.205 68.3778ZM158.866 63.75C160.66 63.75 162.281 63.3093 163.73 62.4278C165.209 61.5148 166.374 60.3185 167.224 58.8389C168.106 57.3278 168.546 55.6593 168.546 53.8333C168.546 52.0074 168.106 50.3546 167.224 48.875C166.374 47.3639 165.209 46.1676 163.73 45.2861C162.281 44.3731 160.66 43.9167 158.866 43.9167C157.071 43.9167 155.434 44.3731 153.955 45.2861C152.506 46.1676 151.342 47.3639 150.46 48.875C149.61 50.3546 149.185 52.0074 149.185 53.8333C149.185 55.6593 149.61 57.3278 150.46 58.8389C151.342 60.3185 152.506 61.5148 153.955 62.4278C155.434 63.3093 157.071 63.75 158.866 63.75ZM181.928 68V39.6667H187.028V68H181.928ZM184.478 34.5667C183.533 34.5667 182.731 34.2361 182.07 33.575C181.408 32.9139 181.078 32.1111 181.078 31.1667C181.078 30.1907 181.408 29.388 182.07 28.7583C182.731 28.0972 183.533 27.7667 184.478 27.7667C185.454 27.7667 186.257 28.0972 186.886 28.7583C187.547 29.388 187.878 30.1907 187.878 31.1667C187.878 32.1111 187.547 32.9139 186.886 33.575C186.257 34.2361 185.454 34.5667 184.478 34.5667ZM206.886 68.5667C204.903 68.5667 203.046 68.0787 201.314 67.1028C199.583 66.0954 198.182 64.6472 197.111 62.7583C196.041 60.8694 195.506 58.6028 195.506 55.9583V39.6667H200.606V55.25C200.606 57.4852 201.267 59.4685 202.589 61.2C203.943 62.9 205.832 63.75 208.256 63.75C210.239 63.75 212.002 63.0417 213.545 61.625C215.119 60.1769 215.906 58.0991 215.906 55.3917V39.6667H221.006V68H216.284V63.4194C215.245 65.088 213.891 66.363 212.222 67.2444C210.585 68.1259 208.807 68.5667 206.886 68.5667ZM230.072 68V39.6667H234.795V43.7278C235.834 42.1852 237.14 41.0361 238.714 40.2806C240.32 39.4935 242.004 39.1 243.767 39.1C245.687 39.1 247.45 39.5565 249.056 40.4694C250.661 41.3509 251.952 42.5944 252.928 44.2C254.03 42.5 255.446 41.225 257.178 40.375C258.941 39.525 260.798 39.1 262.75 39.1C264.891 39.1 266.843 39.6037 268.606 40.6111C270.4 41.6185 271.817 43.0352 272.856 44.8611C273.926 46.6556 274.461 48.7806 274.461 51.2361V68H269.361V51.85C269.361 49.2685 268.621 47.3167 267.142 45.9944C265.694 44.6407 264.009 43.9639 262.089 43.9639C260.893 43.9639 259.728 44.2315 258.595 44.7667C257.493 45.3019 256.58 46.1361 255.856 47.2694C255.163 48.4028 254.817 49.8824 254.817 51.7083V68H249.717V51.85C249.717 50.0556 249.355 48.5759 248.631 47.4111C247.938 46.2463 247.025 45.3806 245.892 44.8139C244.79 44.2157 243.641 43.9167 242.445 43.9167C241.28 43.9167 240.131 44.1843 238.997 44.7194C237.896 45.2546 236.983 46.0889 236.259 47.2222C235.534 48.3556 235.172 49.8509 235.172 51.7083V68H230.072Z" fill="black"/>
<defs>
<radialGradient id="paint0_radial_76_400" cx="0" cy="0" r="1" gradientUnits="userSpaceOnUse" gradientTransform="translate(27.7248 39.4385) rotate(130.168) scale(34.7607)">
<stop offset="0.19" stop-color="#5AE68D"/>
<stop offset="0.835" stop-color="#43A684"/>
</radialGradient>
<linearGradient id="paint1_linear_76_400" x1="17.5" y1="31" x2="17.5" y2="39.125" gradientUnits="userSpaceOnUse">
<stop stop-color="#5ED284"/>
<stop offset="1" stop-color="#5ED284" stop-opacity="0"/>
</linearGradient>
<radialGradient id="paint2_radial_76_400" cx="0" cy="0" r="1" gradientUnits="userSpaceOnUse" gradientTransform="translate(28.3491 41.939) rotate(136.38) scale(18.3459 19.77)">
<stop offset="0.179" stop-color="#6FFCA5"/>
<stop offset="1" stop-color="#65E6A7" stop-opacity="0"/>
</radialGradient>
<radialGradient id="paint3_radial_76_400" cx="0" cy="0" r="1" gradientUnits="userSpaceOnUse" gradientTransform="translate(23.115 48.5) rotate(180) scale(24.0625 25)">
<stop offset="0.62" stop-color="#64CB85" stop-opacity="0"/>
<stop offset="0.951" stop-color="#A4E4B7"/>
</radialGradient>
</defs>
</svg>
