<svg width="410" height="115" viewBox="0 0 410 115" fill="none" xmlns="http://www.w3.org/2000/svg">
<path d="M117.986 68L99.9 41.7917L114.444 25.5H120.772L106.322 41.7444L124.55 68H117.986ZM93.95 68V25.5H99.3333V68H93.95ZM128.459 68V22.6667H133.559V43.6806C134.629 42.2009 135.952 41.0676 137.526 40.2806C139.1 39.4935 140.784 39.1 142.579 39.1C144.593 39.1 146.451 39.6037 148.151 40.6111C149.882 41.587 151.283 43.0194 152.354 44.9083C153.424 46.7657 153.959 49.0324 153.959 51.7083V68H148.859V52.4167C148.859 50.1815 148.182 48.2139 146.829 46.5139C145.506 44.7824 143.633 43.9167 141.209 43.9167C139.226 43.9167 137.447 44.6407 135.873 46.0889C134.33 47.5056 133.559 49.5676 133.559 52.275V68H128.459ZM174.595 68.3778C172.014 68.3778 169.653 67.7324 167.512 66.4417C165.371 65.1194 163.655 63.3565 162.365 61.1528C161.105 58.9491 160.476 56.5093 160.476 53.8333C160.476 51.1574 161.105 48.7176 162.365 46.5139C163.655 44.3102 165.371 42.563 167.512 41.2722C169.653 39.95 172.014 39.2889 174.595 39.2889C176.547 39.2889 178.373 39.6509 180.073 40.375C181.804 41.0991 183.3 42.1065 184.559 43.3972V39.6667H189.281V68H184.559V64.2694C183.3 65.5287 181.804 66.5361 180.073 67.2917C178.373 68.0157 176.547 68.3778 174.595 68.3778ZM175.256 63.75C177.051 63.75 178.672 63.3093 180.12 62.4278C181.6 61.5148 182.765 60.3185 183.615 58.8389C184.496 57.3278 184.937 55.6593 184.937 53.8333C184.937 52.0074 184.496 50.3546 183.615 48.875C182.765 47.3639 181.6 46.1676 180.12 45.2861C178.672 44.3731 177.051 43.9167 175.256 43.9167C173.462 43.9167 171.825 44.3731 170.345 45.2861C168.897 46.1676 167.732 47.3639 166.851 48.875C166.001 50.3546 165.576 52.0074 165.576 53.8333C165.576 55.6593 166.001 57.3278 166.851 58.8389C167.732 60.3185 168.897 61.5148 170.345 62.4278C171.825 63.3093 173.462 63.75 175.256 63.75ZM225.591 69.4167L208.496 25.5H214.163L224.174 51.0944C224.489 51.913 224.772 52.7 225.024 53.4556C225.307 54.1796 225.575 55.0296 225.827 56.0056C226.079 55.0296 226.331 54.1796 226.582 53.4556C226.866 52.7 227.165 51.913 227.48 51.0944L237.444 25.5H242.78L225.685 69.4167H225.591ZM247.858 68V39.6667H252.958V68H247.858ZM250.408 34.5667C249.463 34.5667 248.66 34.2361 247.999 33.575C247.338 32.9139 247.008 32.1111 247.008 31.1667C247.008 30.1907 247.338 29.388 247.999 28.7583C248.66 28.0972 249.463 27.7667 250.408 27.7667C251.383 27.7667 252.186 28.0972 252.816 28.7583C253.477 29.388 253.808 30.1907 253.808 31.1667C253.808 32.1111 253.477 32.9139 252.816 33.575C252.186 34.2361 251.383 34.5667 250.408 34.5667ZM262.002 68V39.6667H266.724V44.8611C267.732 43.1926 269.07 41.8704 270.738 40.8944C272.407 39.887 274.39 39.3833 276.688 39.3833L277.963 44.4833C277.365 44.2944 276.672 44.2 275.885 44.2C273.241 44.2 271.116 45.05 269.51 46.75C267.905 48.4185 267.102 50.8111 267.102 53.9278V68H262.002ZM294.459 68.3778C291.877 68.3778 289.516 67.7324 287.375 66.4417C285.234 65.1194 283.519 63.3565 282.228 61.1528C280.969 58.9491 280.339 56.5093 280.339 53.8333C280.339 51.1574 280.969 48.7176 282.228 46.5139C283.519 44.3102 285.234 42.563 287.375 41.2722C289.516 39.95 291.877 39.2889 294.459 39.2889C296.41 39.2889 298.236 39.6509 299.936 40.375C301.668 41.0991 303.163 42.1065 304.422 43.3972V39.6667H309.145V68H304.422V64.2694C303.163 65.5287 301.668 66.5361 299.936 67.2917C298.236 68.0157 296.41 68.3778 294.459 68.3778ZM295.12 63.75C296.914 63.75 298.535 63.3093 299.984 62.4278C301.463 61.5148 302.628 60.3185 303.478 58.8389C304.359 57.3278 304.8 55.6593 304.8 53.8333C304.8 52.0074 304.359 50.3546 303.478 48.875C302.628 47.3639 301.463 46.1676 299.984 45.2861C298.535 44.3731 296.914 43.9167 295.12 43.9167C293.325 43.9167 291.688 44.3731 290.209 45.2861C288.76 46.1676 287.596 47.3639 286.714 48.875C285.864 50.3546 285.439 52.0074 285.439 53.8333C285.439 55.6593 285.864 57.3278 286.714 58.8389C287.596 60.3185 288.76 61.5148 290.209 62.4278C291.688 63.3093 293.325 63.75 295.12 63.75Z" fill="#582C5F"/>
<path d="M44.2 38L51.2667 24H52.0667L59.1333 38H44.2ZM49.6667 69.6L26.6667 42H49.6667V69.6ZM53.6667 69.6V42H76.6667L53.6667 69.6ZM63.5333 38L56.6 24H70.3333L77.3333 38H63.5333ZM26 38L33 24H46.7333L39.8 38H26Z" fill="#582C5F"/>
</svg>
